<svg width="25" height="21" viewBox="0 0 25 21" fill="none" xmlns="http://www.w3.org/2000/svg">
<path d="M25 2.6061V18.2427C25 18.9594 24.7552 19.5729 24.2656 20.0833C23.776 20.5937 23.1875 20.8488 22.5 20.8488H2.5C1.8125 20.8488 1.22396 20.5937 0.734375 20.0833C0.244792 19.5729 0 18.9594 0 18.2427V2.6061C0 1.88943 0.244792 1.27591 0.734375 0.765543C1.22396 0.255181 1.8125 0 2.5 0H22.5C23.1875 0 23.776 0.255181 24.2656 0.765543C24.7552 1.27591 25 1.88943 25 2.6061ZM2.5 5.21221H22.5V2.6061H2.5V5.21221ZM2.5 10.4244V18.2427H22.5V10.4244H2.5Z" fill="white"/>
</svg>
