<svg width="30" height="30" viewBox="0 0 30 30" fill="none" xmlns="http://www.w3.org/2000/svg">
<path d="M15.0012 11.25C14.0067 11.25 13.0529 11.6451 12.3496 12.3483C11.6463 13.0516 11.2512 14.0054 11.2512 15C11.2512 15.9946 11.6463 16.9484 12.3496 17.6516C13.0529 18.3549 14.0067 18.75 15.0012 18.75C15.9958 18.75 16.9496 18.3549 17.6529 17.6516C18.3562 16.9484 18.7512 15.9946 18.7512 15C18.7512 14.0054 18.3562 13.0516 17.6529 12.3483C16.9496 11.6451 15.9958 11.25 15.0012 11.25ZM15.0012 8.75C16.6589 8.75 18.2486 9.40848 19.4207 10.5806C20.5928 11.7527 21.2512 13.3424 21.2512 15C21.2512 16.6576 20.5928 18.2473 19.4207 19.4194C18.2486 20.5915 16.6589 21.25 15.0012 21.25C13.3436 21.25 11.7539 20.5915 10.5818 19.4194C9.40973 18.2473 8.75125 16.6576 8.75125 15C8.75125 13.3424 9.40973 11.7527 10.5818 10.5806C11.7539 9.40848 13.3436 8.75 15.0012 8.75ZM23.1262 8.4375C23.1262 8.8519 22.9616 9.24933 22.6686 9.54235C22.3756 9.83538 21.9781 10 21.5637 10C21.1493 10 20.7519 9.83538 20.4589 9.54235C20.1659 9.24933 20.0012 8.8519 20.0012 8.4375C20.0012 8.0231 20.1659 7.62567 20.4589 7.33265C20.7519 7.03962 21.1493 6.875 21.5637 6.875C21.9781 6.875 22.3756 7.03962 22.6686 7.33265C22.9616 7.62567 23.1262 8.0231 23.1262 8.4375ZM15.0012 5C11.9087 5 11.4037 5.00875 9.965 5.0725C8.985 5.11875 8.3275 5.25 7.7175 5.4875C7.20702 5.67492 6.74552 5.97533 6.3675 6.36625C5.97626 6.74425 5.67544 7.20573 5.4875 7.71625C5.25 8.32875 5.11875 8.985 5.07375 9.96375C5.00875 11.3437 5 11.8262 5 15C5 18.0937 5.00875 18.5975 5.0725 20.0362C5.11875 21.015 5.25 21.6737 5.48625 22.2825C5.69875 22.8262 5.94875 23.2175 6.36375 23.6325C6.785 24.0525 7.17625 24.3037 7.71375 24.5112C8.33125 24.75 8.98875 24.8825 9.96375 24.9275C11.3437 24.9925 11.8262 25 15 25C18.0937 25 18.5975 24.9912 20.0362 24.9275C21.0137 24.8812 21.6712 24.75 22.2825 24.5137C22.7925 24.3254 23.2538 24.0251 23.6325 23.635C24.0537 23.215 24.305 22.8237 24.5125 22.285C24.75 21.67 24.8825 21.0125 24.9275 20.035C24.9925 18.6562 25 18.1725 25 15C25 11.9075 24.9912 11.4025 24.9275 9.96375C24.8812 8.98625 24.7487 8.32625 24.5125 7.71625C24.3241 7.20627 24.0238 6.74498 23.6337 6.36625C23.2559 5.97481 22.7944 5.67396 22.2837 5.48625C21.6712 5.24875 21.0137 5.1175 20.0362 5.0725C18.6575 5.0075 18.175 5 15 5M15 2.5C18.3962 2.5 18.82 2.5125 20.1537 2.575C21.4837 2.6375 22.3912 2.84625 23.1875 3.15625C24.0125 3.47375 24.7075 3.90375 25.4025 4.5975C26.0381 5.22237 26.5299 5.97824 26.8437 6.8125C27.1525 7.60875 27.3625 8.51625 27.425 9.8475C27.4837 11.18 27.5 11.6037 27.5 15C27.5 18.3962 27.4875 18.82 27.425 20.1525C27.3625 21.4837 27.1525 22.39 26.8437 23.1875C26.5308 24.0222 26.0389 24.7782 25.4025 25.4025C24.7775 26.0379 24.0216 26.5297 23.1875 26.8437C22.3912 27.1525 21.4837 27.3625 20.1537 27.425C18.82 27.4837 18.3962 27.5 15 27.5C11.6037 27.5 11.18 27.4875 9.84625 27.425C8.51625 27.3625 7.61 27.1525 6.8125 26.8437C5.97791 26.5306 5.22191 26.0387 4.5975 25.4025C3.96179 24.7777 3.46995 24.0218 3.15625 23.1875C2.84625 22.3912 2.6375 21.4837 2.575 20.1525C2.515 18.82 2.5 18.3962 2.5 15C2.5 11.6037 2.5125 11.18 2.575 9.8475C2.6375 8.51625 2.84625 7.61 3.15625 6.8125C3.46905 5.97772 3.961 5.22165 4.5975 4.5975C5.22209 3.96154 5.97804 3.46966 6.8125 3.15625C7.60875 2.84625 8.515 2.6375 9.84625 2.575C11.1812 2.51625 11.605 2.5 15.0012 2.5" fill="white"/>
</svg>
