<svg width="21" height="24" viewBox="0 0 21 24" fill="none" xmlns="http://www.w3.org/2000/svg">
<path id="Vector" d="M7.81864 3.25338L6.97042 4.50973H13.4436L12.5954 3.25338C12.5285 3.15605 12.4169 3.09412 12.2963 3.09412H8.11328C7.99275 3.09412 7.88114 3.15163 7.81417 3.25338H7.81864ZM14.3811 2.07665L16.0195 4.50973H16.6356H18.7785H19.1356C19.7294 4.50973 20.207 4.98308 20.207 5.57144C20.207 6.15981 19.7294 6.63315 19.1356 6.63315H18.7785V20.0815C18.7785 22.0368 17.1802 23.6205 15.207 23.6205H5.20703C3.23382 23.6205 1.6356 22.0368 1.6356 20.0815V6.63315H1.27846C0.68471 6.63315 0.207031 6.15981 0.207031 5.57144C0.207031 4.98308 0.68471 4.50973 1.27846 4.50973H1.6356H3.77846H4.39453L6.03292 2.07223C6.49721 1.38654 7.27846 0.970703 8.11328 0.970703H12.2963C13.1311 0.970703 13.9124 1.38654 14.3767 2.07223L14.3811 2.07665ZM3.77846 6.63315V20.0815C3.77846 20.8645 4.41685 21.4971 5.20703 21.4971H15.207C15.9972 21.4971 16.6356 20.8645 16.6356 20.0815V6.63315H3.77846ZM7.34989 9.46438V18.6659C7.34989 19.0551 7.02846 19.3737 6.6356 19.3737C6.24275 19.3737 5.92132 19.0551 5.92132 18.6659V9.46438C5.92132 9.07508 6.24275 8.75657 6.6356 8.75657C7.02846 8.75657 7.34989 9.07508 7.34989 9.46438ZM10.9213 9.46438V18.6659C10.9213 19.0551 10.5999 19.3737 10.207 19.3737C9.81417 19.3737 9.49275 19.0551 9.49275 18.6659V9.46438C9.49275 9.07508 9.81417 8.75657 10.207 8.75657C10.5999 8.75657 10.9213 9.07508 10.9213 9.46438ZM14.4927 9.46438V18.6659C14.4927 19.0551 14.1713 19.3737 13.7785 19.3737C13.3856 19.3737 13.0642 19.0551 13.0642 18.6659V9.46438C13.0642 9.07508 13.3856 8.75657 13.7785 8.75657C14.1713 8.75657 14.4927 9.07508 14.4927 9.46438Z" fill="black"/>
</svg>
