<svg width="100" height="54" viewBox="0 0 100 54" fill="none" xmlns="http://www.w3.org/2000/svg">
<path d="M70.9007 18.3232C77.2314 20.497 74.9432 25.0353 72.7694 23.2429C72.6169 21.6793 71.5109 19.6962 70.4812 18.5902L70.9007 18.3232ZM79.7866 26.3701C79.634 26.7515 79.1383 27.0947 78.3374 27.0566C77.4221 28.849 75.8966 31.366 74.6381 33.311H73.8754C74.6 31.099 75.5534 27.6667 76.1636 25.3023L79.7866 26.3701ZM69.9854 51.5785C69.9854 51.8454 69.0702 52.3793 68.0786 52.3793H67.6972V35.6755L70.138 36.8196H78.1086V37.9255H69.9854V51.5785ZM76.4305 36.8196L77.7653 35.3322L80.7019 37.6204C80.473 37.9255 79.8629 38.1925 79.1001 38.345V50.892C79.062 51.159 77.956 51.7692 77.1551 51.7692H76.8119V36.8196H76.4305ZM78.0323 42.4638V43.6079H68.7269V42.4638H78.0323ZM78.0323 48.4131V49.5191H68.8032V48.4131H78.0323ZM68.46 25.5311C74.1423 29.3066 72.0448 33.4635 70.1761 31.7474C70.0236 29.8024 68.9557 27.2854 67.9642 25.7218L68.46 25.5311ZM78.9476 30.527C78.9476 30.527 80.74 31.9762 81.8078 33.0822C81.7316 33.5017 81.3502 33.6923 80.8544 33.6923H65.8285L65.5234 32.5864H77.3077L78.9476 30.527ZM78.8332 21.7174C78.8332 21.7174 80.5493 23.1666 81.6171 24.2344C81.5409 24.6539 81.1595 24.8446 80.6637 24.8446H66.4006L66.0955 23.7005H77.3077L78.8332 21.7174ZM95.7659 30.1838L97.1388 28.7346L99.9991 30.9846C99.7702 31.2516 99.1982 31.5186 98.5499 31.633V46.1249C98.5117 46.3537 97.2913 46.9258 96.4905 46.9258H96.1472V30.1838H95.7659ZM84.8969 46.4682C84.8969 46.7351 83.9053 47.269 82.9138 47.269H82.5324V28.9634L85.0876 30.1838H97.749V31.3279H84.8969V46.4682ZM94.7743 20.0775L96.071 18.7427L98.8931 20.8784C98.6643 21.1454 98.0541 21.4123 97.4058 21.5267V27.5905C97.3676 27.8574 96.2235 28.3913 95.4608 28.3913H95.1175V20.0775H94.7743ZM86.3461 27.8956C86.3461 28.0862 85.3164 28.6202 84.4011 28.6202H84.0198V18.9716L86.5368 20.0775H96.2617V21.2216H86.3461V27.8956ZM90.5793 47.6123C90.3123 47.9555 90.0072 48.1462 89.1682 47.9174C87.2232 49.9005 83.6003 51.998 79.901 53.1039L79.5196 52.57C82.6468 50.9683 85.8503 48.108 87.3377 45.858L90.5793 47.6123ZM92.0666 46.4682C101.639 48.7182 100.724 54.0574 97.9778 52.837C96.7956 50.9302 93.859 48.2987 91.6852 46.8495L92.0666 46.4682ZM97.4058 44.3325V45.4385H83.7909V44.3325H97.4058ZM97.4058 39.5273V40.6714H83.7528V39.5273H97.4058ZM97.3676 34.9127V36.0187H83.7528V34.9127H97.3676ZM96.1472 25.8743V27.0184H85.4308V25.8743H96.1472Z" fill="white"/>
<path d="M36.9857 30.6033C44.0791 31.633 42.8968 36.1331 40.5705 34.9127C39.9603 33.5398 38.1298 31.8618 36.6424 30.9846L36.9857 30.6033ZM36.1085 38.2306C43.8121 39.5273 42.6299 44.2944 40.2273 43.074C39.5027 41.5104 37.4052 39.6035 35.7271 38.612L36.1085 38.2306ZM51.3251 30.6414C59.0668 31.5948 58.1134 36.4001 55.6727 35.2941C54.8337 33.8068 52.6599 31.9762 50.9437 31.0609L51.3251 30.6414ZM51.2488 38.1543C59.1812 39.5273 58.0371 44.4469 55.5583 43.2265C54.7955 41.5867 52.5836 39.5654 50.8674 38.5357L51.2488 38.1543ZM27.3752 44.6757H57.4651L59.1812 42.5019C59.1812 42.5019 61.0499 44.0655 62.2322 45.1715C62.1178 45.591 61.7745 45.7817 61.2406 45.7817H27.7184L27.3752 44.6757ZM43.4689 25.0734L47.13 25.493C47.0538 25.9887 46.2077 26.653 45.8334 26.8986V52.1124C45.8334 52.4556 44.8037 53.0658 43.9265 53.0658H43.4689V25.0734ZM45.6808 20.4208C41.9434 24.5777 34.2398 29.5736 27.3371 32.0525C27.3371 32.0525 25.4225 32.0525 27.1082 31.4804C28.794 30.9084 41.257 22.5564 43.4308 18.3232C43.4308 18.3232 46.018 19.2028 47.8928 19.3148C49.7675 19.4268 47.3589 19.925 46.3673 20.0013C50.0284 23.4336 60.1412 26.8247 61.2406 27.3616C62.34 27.8986 65.0901 28.384 64.9053 28.5104C63.5127 29.4633 60.0248 30.1075 58.9143 29.9931C57.8038 29.8787 48.6936 24.6158 45.6808 20.4208ZM37.4433 27.3616L40.4942 28.6202C40.3417 29.0015 39.9222 29.1159 39.2357 28.9634C37.8247 31.7474 34.7737 34.3788 31.3414 35.7899L30.9982 35.1797C33.9729 33.3491 36.3755 30.4126 37.4433 27.3616ZM51.5539 27.171L54.7192 28.4295C54.5667 28.849 54.1472 28.9253 53.4226 28.8108C52.2404 31.4041 49.6089 33.883 46.5198 35.256L46.1766 34.6839C48.7699 32.8533 50.7149 30.0312 51.5539 27.171ZM51.9734 34.3407L55.1387 35.5611C54.9862 35.9806 54.6048 36.095 53.8802 35.9806C52.5836 38.8408 49.8377 41.7011 46.5198 43.3791L46.1385 42.807C48.9606 40.7095 51.0963 37.4679 51.9734 34.3407ZM36.6043 34.7983L39.6552 36.0187C39.5408 36.4001 39.1213 36.4763 38.3967 36.4001C37.0238 39.3366 34.011 42.1206 30.4261 43.7223L30.0829 43.1121C33.1338 41.1671 35.5365 38.0018 36.6043 34.7983Z" fill="white"/>
<path d="M28.9114 25.4113C28.9114 27.4352 27.2707 29.0759 25.2467 29.0759C23.2228 29.0759 21.582 27.4352 21.582 25.4113C21.582 23.3873 23.2228 21.7466 25.2467 21.7466C27.2707 21.7466 28.9114 23.3873 28.9114 25.4113Z" fill="white"/>
<path d="M27.5931 25.4113C27.5931 26.7066 26.5431 27.7567 25.2477 27.7567C23.9524 27.7567 22.9023 26.7066 22.9023 25.4113C22.9023 24.116 23.9524 23.0659 25.2477 23.0659C26.5431 23.0659 27.5931 24.116 27.5931 25.4113Z" fill="white"/>
<path fill-rule="evenodd" clip-rule="evenodd" d="M26.5142 10.0745C26.4285 15.6321 26.0252 20.1323 25.6136 20.1259C25.2019 20.1196 24.9377 15.6091 25.0234 10.0515C25.0805 6.34959 25.2784 3.11685 25.5259 1.3726C25.7777 1.37552 26.0293 1.38239 26.2805 1.39319C26.4734 3.14632 26.5712 6.37889 26.5142 10.0745ZM37.5079 4.73236C36.9162 4.38158 36.3085 4.05559 35.6862 3.75561C32.7376 2.33431 29.5366 1.53323 26.2805 1.39319C26.1833 0.509868 26.0619 0.00213399 25.924 6.70996e-06C25.7865 -0.0021133 25.65 0.49822 25.5259 1.3726C25.0995 1.36766 24.6725 1.37406 24.2452 1.39189C20.6743 1.54089 17.1865 2.48393 14.0336 4.14664C13.5502 3.49858 13.2205 3.15981 13.1061 3.22356C12.9919 3.28717 13.1055 3.74375 13.4004 4.49277C13.2801 4.56095 13.1602 4.6302 13.0409 4.70052C9.69108 6.67484 6.87101 9.43171 4.82156 12.7338C4.11477 12.4333 3.6828 12.3147 3.61739 12.4241C3.55202 12.5334 3.86047 12.8576 4.4589 13.3377C2.56107 16.6054 1.45905 20.2768 1.24549 24.0544C1.23143 24.3031 1.22125 24.5518 1.21493 24.8005C0.441896 24.894 0.00198651 25.0081 6.71061e-06 25.1364C-0.00197602 25.265 0.435487 25.3927 1.20737 25.5102C1.22158 28.9659 1.98079 32.384 3.43998 35.529C3.67159 36.0282 3.91983 36.5184 4.18412 36.9988C3.51166 37.4974 3.15858 37.8375 3.22355 37.9542C3.28872 38.0712 3.7664 37.949 4.54847 37.6378C6.14619 40.3426 8.26278 42.7151 10.7845 44.6143C11.4461 45.1126 12.1314 45.5752 12.8373 46.0007C12.4615 46.8482 12.3029 47.3705 12.4241 47.443C12.5457 47.5157 12.9332 47.1259 13.5054 46.3888C15.9913 47.7803 18.7126 48.7232 21.5445 49.1646L24.4765 30.3569C23.6631 30.2301 22.8937 29.9047 22.2361 29.4095C21.5786 28.9143 21.0534 28.2645 20.707 27.5178C20.3605 26.7712 20.2036 25.9506 20.2501 25.1287C20.2965 24.3069 20.5449 23.5092 20.9733 22.8064C21.4017 22.1035 21.9968 21.5171 22.7059 21.0991C23.4151 20.6812 24.2163 20.4446 25.0388 20.4103C25.8612 20.3759 26.6794 20.545 27.4209 20.9024C28.1623 21.2598 28.8042 21.7946 29.2897 22.4593L44.662 11.2335C42.8946 8.81329 40.6955 6.75182 38.1835 5.14817C38.5876 4.24855 38.7616 3.69223 38.6363 3.61728C38.5114 3.54259 38.1059 3.95597 37.5079 4.73236ZM37.5079 4.73236C37.7355 4.86731 37.9607 5.00594 38.1835 5.14817C37.4483 6.78512 35.9514 9.55873 34.1102 12.6371C31.2571 17.4073 28.6578 21.103 28.3045 20.8917C27.9511 20.6803 29.9775 16.642 32.8306 11.8718C34.6752 8.78762 36.4138 6.15261 37.5079 4.73236ZM13.5054 46.3888C14.5962 44.9839 16.3584 42.3173 18.2298 39.1885C21.0828 34.4183 23.1092 30.38 22.7559 30.1686C22.4025 29.9573 19.8032 33.653 16.9502 38.4232C15.0754 41.5578 13.5575 44.3764 12.8373 46.0007C13.058 46.1337 13.2807 46.2631 13.5054 46.3888ZM4.54847 37.6378C6.17064 36.9922 9.10235 35.5332 12.3787 33.7084C17.2346 31.0038 21.0087 28.5198 20.8083 28.1601C20.608 27.8004 16.5091 29.7013 11.6532 32.4058C8.37218 34.2333 5.58507 35.96 4.18412 36.9988C4.30238 37.2138 4.42385 37.4268 4.54847 37.6378ZM1.20737 25.5102C2.90732 25.769 6.22934 25.9781 10.0515 26.037C15.6091 26.1227 20.1196 25.8585 20.1259 25.4468C20.1323 25.0351 15.6321 24.6319 10.0745 24.5462C6.24979 24.4872 2.92104 24.594 1.21493 24.8005C1.20891 25.0372 1.2064 25.2738 1.20737 25.5102ZM4.4589 13.3377C5.79515 14.4097 8.57724 16.2592 11.8719 18.2298C16.6421 21.0828 20.6804 23.1092 20.8918 22.7559C21.1031 22.4025 17.4074 19.8032 12.6372 16.9502C9.34338 14.9801 6.39848 13.4042 4.82156 12.7338C4.78724 12.7891 4.75313 12.8445 4.71925 12.9001C4.63087 13.0452 4.54408 13.191 4.4589 13.3377ZM13.4004 4.49277C13.6099 4.37414 13.821 4.25875 14.0336 4.14664C15.0692 5.53495 16.8106 8.34266 18.6544 11.6532C21.359 16.5091 23.2599 20.608 22.9002 20.8083C22.5405 21.0087 20.0564 17.2346 17.3518 12.3787C15.5059 9.0645 14.0344 6.10293 13.4004 4.49277Z" fill="white"/>
</svg>
