<svg width="26" height="25" viewBox="0 0 26 25" fill="none" xmlns="http://www.w3.org/2000/svg">
<path d="M4.8789 18.875C5.9414 18.0625 7.1289 17.4221 8.4414 16.9537C9.7539 16.4854 11.1289 16.2508 12.5664 16.25C14.0039 16.2492 15.3789 16.4837 16.6914 16.9537C18.0039 17.4237 19.1914 18.0642 20.2539 18.875C20.9831 18.0208 21.551 17.0521 21.9576 15.9687C22.3643 14.8854 22.5672 13.7292 22.5664 12.5C22.5664 9.72916 21.5926 7.36958 19.6451 5.42125C17.6976 3.47291 15.3381 2.49917 12.5664 2.5C9.79473 2.50083 7.43515 3.475 5.48765 5.4225C3.54016 7.36999 2.56641 9.72916 2.56641 12.5C2.56641 13.7292 2.76974 14.8854 3.17641 15.9687C3.58307 17.0521 4.15057 18.0208 4.8789 18.875ZM12.5664 13.75C11.3372 13.75 10.3006 13.3283 9.4564 12.485C8.61224 11.6417 8.19057 10.605 8.1914 9.37499C8.19224 8.14499 8.61432 7.10833 9.45765 6.265C10.301 5.42166 11.3372 5 12.5664 5C13.7956 5 14.8322 5.42208 15.6764 6.26625C16.5206 7.11041 16.9422 8.14666 16.9414 9.37499C16.9406 10.6033 16.5189 11.64 15.6764 12.485C14.8339 13.33 13.7972 13.7517 12.5664 13.75ZM12.5664 25C10.8372 25 9.21224 24.6716 7.6914 24.015C6.17057 23.3583 4.84765 22.4679 3.72266 21.3437C2.59766 20.2196 1.70724 18.8967 1.05141 17.375C0.395574 15.8533 0.0672412 14.2283 0.0664078 12.5C0.0655745 10.7717 0.393908 9.14666 1.05141 7.625C1.70891 6.10333 2.59932 4.78041 3.72266 3.65625C4.84599 2.53208 6.1689 1.64167 7.6914 0.984999C9.2139 0.328333 10.8389 0 12.5664 0C14.2939 0 15.9189 0.328333 17.4414 0.984999C18.9639 1.64167 20.2868 2.53208 21.4101 3.65625C22.5335 4.78041 23.4243 6.10333 24.0826 7.625C24.741 9.14666 25.0689 10.7717 25.0664 12.5C25.0639 14.2283 24.7356 15.8533 24.0814 17.375C23.4272 18.8967 22.5368 20.2196 21.4101 21.3437C20.2835 22.4679 18.9606 23.3587 17.4414 24.0162C15.9222 24.6737 14.2972 25.0016 12.5664 25ZM12.5664 22.5C13.6706 22.5 14.7122 22.3387 15.6914 22.0162C16.6706 21.6937 17.5664 21.23 18.3789 20.625C17.5664 20.0208 16.6706 19.5575 15.6914 19.235C14.7122 18.9125 13.6706 18.7508 12.5664 18.75C11.4622 18.7492 10.4206 18.9108 9.4414 19.235C8.46224 19.5592 7.5664 20.0225 6.7539 20.625C7.5664 21.2292 8.46224 21.6929 9.4414 22.0162C10.4206 22.3396 11.4622 22.5008 12.5664 22.5ZM12.5664 11.25C13.1081 11.25 13.556 11.0729 13.9101 10.7187C14.2643 10.3646 14.4414 9.91666 14.4414 9.37499C14.4414 8.83333 14.2643 8.38541 13.9101 8.03125C13.556 7.67708 13.1081 7.5 12.5664 7.5C12.0247 7.5 11.5768 7.67708 11.2227 8.03125C10.8685 8.38541 10.6914 8.83333 10.6914 9.37499C10.6914 9.91666 10.8685 10.3646 11.2227 10.7187C11.5768 11.0729 12.0247 11.25 12.5664 11.25Z" fill="white"/>
</svg>
