<svg width="26" height="25" viewBox="0 0 26 25" fill="none" xmlns="http://www.w3.org/2000/svg">
<path d="M7.52668 25C6.83673 25 6.24631 24.7554 5.7554 24.2662C5.26449 23.7771 5.01862 23.1883 5.01779 22.5C5.01695 21.8116 5.26282 21.2233 5.7554 20.735C6.24798 20.2466 6.83841 20.0016 7.52668 20C8.21495 19.9983 8.8058 20.2433 9.29921 20.735C9.79263 21.2266 10.0381 21.815 10.0356 22.5C10.0331 23.185 9.78761 23.7737 9.29921 24.2662C8.81081 24.7587 8.21997 25.0033 7.52668 25ZM20.0711 25C19.3812 25 18.7908 24.7554 18.2999 24.2662C17.809 23.7771 17.5631 23.1883 17.5623 22.5C17.5614 21.8116 17.8073 21.2233 18.2999 20.735C18.7924 20.2466 19.3829 20.0016 20.0711 20C20.7594 19.9983 21.3503 20.2433 21.8437 20.735C22.3371 21.2266 22.5825 21.815 22.58 22.5C22.5775 23.185 22.3321 23.7737 21.8437 24.2662C21.3553 24.7587 20.7644 25.0033 20.0711 25ZM6.4604 4.99999L9.47107 11.25H18.2522L21.7019 4.99999H6.4604ZM5.26868 2.5H23.7718C24.2526 2.5 24.6185 2.71375 24.8694 3.14125C25.1203 3.56875 25.1307 4.00083 24.9008 4.43749L20.4475 12.4375C20.2175 12.8541 19.9093 13.1771 19.523 13.4062C19.1366 13.6354 18.713 13.75 18.2522 13.75H8.90657L7.52668 16.25H22.58V18.75H7.52668C6.58584 18.75 5.87499 18.3387 5.39412 17.5162C4.91325 16.6937 4.89234 15.8758 5.3314 15.0625L7.0249 12L2.50889 2.5H0V0H4.07695L5.26868 2.5Z" fill="white"/>
</svg>
